<svg xmlns="http://www.w3.org/2000/svg" version="1.1" xmlns:xlink="http://www.w3.org/1999/xlink" xmlns:svgjs="http://svgjs.dev/svgjs" width="1000" height="1125" viewBox="0 0 1000 1125"><g transform="matrix(1,0,0,1,0,0)"><svg viewBox="0 0 320 360" data-background-color="#0c1d36" preserveAspectRatio="xMidYMid meet" height="1125" width="1000" xmlns="http://www.w3.org/2000/svg" xmlns:xlink="http://www.w3.org/1999/xlink"><g id="tight-bounds" transform="matrix(1,0,0,1,0,0)"><svg viewBox="0 0 320 360" height="360" width="320"><g><svg></svg></g><g><svg viewBox="0 0 320 360" height="360" width="320"><g><path xmlns="http://www.w3.org/2000/svg" d="M160 340c88.258 0 160-71.742 160-160 0-88.258-71.742-160-160-160-88.258 0-160 71.742-160 160 0 88.258 71.742 160 160 160zM165.161 329.368v-10.323c72.671-2.684 131.2-61.213 133.884-133.884h10.323c-2.684 78.452-65.755 141.523-144.207 144.207zM165.161 30.632c78.452 2.684 141.523 65.755 144.207 144.207h-10.323c-2.684-72.671-61.213-131.2-133.884-133.884zM289.032 180c0 71.123-57.91 129.032-129.032 129.032-71.123 0-129.032-57.91-129.032-129.032 0-71.123 57.91-129.032 129.032-129.032 71.123 0 129.032 57.91 129.032 129.032zM154.839 30.632v10.323c-72.671 2.684-131.2 61.213-133.884 133.884h-10.323c2.684-78.452 65.755-141.523 144.207-144.207zM20.955 185.161c2.684 72.671 61.213 131.2 133.884 133.884v10.323c-78.452-2.684-141.523-65.755-144.207-144.207z" fill="#f9cc0b" fill-rule="nonzero" stroke="none" stroke-width="1" stroke-linecap="butt" stroke-linejoin="miter" stroke-miterlimit="10" stroke-dasharray="" stroke-dashoffset="0" font-family="none" font-weight="none" font-size="none" text-anchor="none" style="mix-blend-mode: normal" data-fill-palette-color="tertiary"></path></g><g transform="matrix(1,0,0,1,64.00000000000001,110.75078864353313)"><svg viewBox="0 0 191.99999999999997 138.49842271293375" height="138.49842271293375" width="191.99999999999997"><g><svg viewBox="0 0 191.99999999999997 138.49842271293375" height="138.49842271293375" width="191.99999999999997"><g><svg viewBox="0 0 192.00000000000003 138.49842271293377" height="138.49842271293375" width="191.99999999999997"><g><svg viewBox="0 0 192.00000000000003 138.49842271293377" height="138.49842271293377" width="192.00000000000003"><g><svg viewBox="0 0 192.00000000000003 138.49842271293377" height="138.49842271293377" width="192.00000000000003"><g><svg viewBox="0 0 192.00000000000003 138.49842271293377" height="138.49842271293377" width="192.00000000000003"><g transform="matrix(1,0,0,1,0,0)"><svg width="192.00000000000003" viewBox="1.9500000476837158 -33.900001525878906 47.54999923706055 34.30000305175781" height="138.49842271293377" data-palette-color="#f9cc0b"><path d="M24.2-9.8L24.2-9.8Q24.2-5.25 20.85-2.43 17.5 0.4 11.95 0.4L11.95 0.4Q6 0.4 2.25-1.7L2.25-1.7 2.25-9.45Q6.8-6.15 11.95-6.15L11.95-6.15Q13.7-6.15 14.85-7.08 16-8 16-9.5L16-9.5Q16-10 15.85-10.45 15.7-10.9 15.3-11.3 14.9-11.7 14.53-11.98 14.15-12.25 13.43-12.63 12.7-13 12.2-13.25 11.7-13.5 10.73-13.95 9.75-14.4 9.15-14.65L9.15-14.65Q5.9-16.15 3.93-18.35 1.95-20.55 1.95-24.2L1.95-24.2Q1.95-28.55 5.15-31.23 8.35-33.9 14-33.9L14-33.9Q19.05-33.9 22.7-32.2L22.7-32.2 22.7-25Q18.65-27.35 14.3-27.35L14.3-27.35Q12.35-27.35 11.33-26.55 10.3-25.75 10.3-24.5 10.3-23.25 11.55-22.28 12.8-21.3 15.3-20.2L15.3-20.2Q16.85-19.5 17.88-18.98 18.9-18.45 20.23-17.53 21.55-16.6 22.33-15.58 23.1-14.55 23.65-13.05 24.2-11.55 24.2-9.8ZM47.85-18.85L47.85-12.7 36.7-12.7 36.7 0 28.95 0 28.95-33.7 49.5-33.7 49.5-27.55 36.7-27.55 36.7-18.85 47.85-18.85Z" opacity="1" transform="matrix(1,0,0,1,0,0)" fill="#f9cc0b" class="undefined-text-0" data-fill-palette-color="primary" id="text-0"></path></svg></g></svg></g></svg></g></svg></g><g></g></svg></g></svg></g></svg></g></svg></g><defs></defs></svg><rect width="320" height="360" fill="none" stroke="none" visibility="hidden"></rect></g></svg></g></svg>